<?xml version="1.0" standalone="no"?>
<!DOCTYPE svg PUBLIC "-//W3C//DTD SVG 20010904//EN"
 "http://www.w3.org/TR/2001/REC-SVG-20010904/DTD/svg10.dtd">
<svg version="1.0" xmlns="http://www.w3.org/2000/svg"
 width="2048.000000pt" height="531.000000pt" viewBox="0 0 2048.000000 531.000000"
 preserveAspectRatio="xMidYMid meet">

<g transform="translate(0.000000,531.000000) scale(0.100000,-0.100000)"
fill="#000000" stroke="none">
<path d="M13720 5294 c-499 -72 -953 -394 -1168 -829 -205 -412 -211 -932 -17
-1352 44 -96 145 -250 224 -341 207 -241 528 -426 876 -505 83 -19 131 -21
588 -24 l497 -4 0 -1115 0 -1114 285 0 285 0 0 1115 0 1115 535 0 535 0 0 270
0 270 -535 0 -535 0 0 163 c0 179 17 324 54 462 106 396 355 660 702 747 125
31 340 31 466 0 359 -88 608 -315 722 -657 40 -118 56 -231 56 -385 0 -321
-81 -539 -270 -731 -106 -107 -197 -167 -339 -221 l-86 -33 -385 -5 -385 -5
-3 -267 -2 -268 1901 0 c2093 0 2013 -2 2204 61 129 43 227 101 316 189 157
155 229 343 229 602 0 213 -60 373 -196 518 -186 196 -416 304 -1012 475 -331
94 -423 125 -531 180 -140 70 -196 144 -194 256 2 113 43 178 137 221 l51 23
845 5 845 5 3 268 2 267 -780 0 c-821 0 -902 -3 -1067 -45 -328 -83 -530 -268
-602 -551 -21 -81 -31 -228 -21 -316 21 -181 77 -296 211 -428 98 -97 208
-170 366 -240 148 -66 267 -106 619 -210 442 -130 571 -186 666 -288 57 -61
72 -105 66 -196 -8 -117 -62 -192 -167 -233 -43 -17 -118 -18 -1108 -21
l-1062 -2 53 74 c200 278 292 644 257 1016 -67 701 -448 1222 -1037 1419 -177
60 -323 83 -529 84 -182 0 -272 -10 -428 -49 -495 -124 -873 -490 -1040 -1009
-67 -208 -97 -429 -97 -712 l0 -163 -404 0 c-437 0 -500 5 -651 56 -290 96
-513 301 -614 563 -48 125 -64 220 -64 376 0 156 16 252 63 373 93 239 301
442 554 541 173 68 214 73 559 78 l307 5 0 269 0 269 -327 -1 c-220 -1 -359
-6 -423 -15z"/>
<path d="M0 3460 l0 -1240 825 0 825 0 0 200 0 200 -605 0 -605 0 0 330 0 330
540 0 540 0 0 195 0 195 -537 2 -538 3 0 315 0 315 603 3 602 2 0 195 0 195
-825 0 -825 0 0 -1240z"/>
<path d="M2130 4215 l0 -235 -135 0 -135 0 0 -175 0 -175 135 0 135 0 0 -455
c0 -294 4 -473 11 -507 36 -173 142 -306 300 -376 117 -53 177 -64 397 -69
l202 -6 0 176 0 175 -162 4 c-188 5 -228 16 -282 80 -19 21 -39 59 -45 83 -7
29 -11 192 -11 469 l0 426 240 0 240 0 0 175 0 175 -240 0 -240 0 0 235 0 235
-205 0 -205 0 0 -235z"/>
<path d="M3852 3989 c-283 -47 -491 -225 -574 -489 -22 -73 -23 -86 -23 -425
l0 -350 27 -81 c15 -44 45 -107 66 -140 44 -68 138 -158 206 -198 244 -143
650 -152 921 -21 184 90 300 249 313 433 l5 72 -191 0 -191 0 -6 -43 c-14 -93
-87 -172 -188 -202 -72 -21 -219 -30 -291 -16 -128 24 -217 88 -263 188 -19
41 -26 77 -30 154 l-6 99 588 0 587 0 -5 218 c-4 178 -8 231 -26 297 -73 276
-272 451 -575 504 -70 13 -268 12 -344 0z m303 -334 c80 -21 142 -60 187 -120
45 -59 66 -122 75 -222 l6 -73 -398 0 -398 0 6 73 c12 149 67 246 174 304 33
19 81 38 105 42 70 14 180 12 243 -4z"/>
<path d="M5720 3989 c-30 -5 -91 -22 -137 -38 -257 -88 -406 -282 -433 -561
-12 -126 -12 -471 0 -590 35 -335 241 -542 590 -595 120 -19 210 -19 330 0
356 53 563 264 587 597 l6 88 -195 0 -195 0 -7 -62 c-8 -81 -54 -176 -102
-213 -70 -54 -127 -69 -259 -69 -109 -1 -125 2 -175 25 -79 37 -123 79 -156
151 l-29 63 0 315 c0 302 1 317 22 362 30 66 95 132 156 159 46 21 67 24 182
24 127 0 132 -1 197 -33 105 -51 151 -122 165 -254 l6 -58 195 0 195 0 -6 84
c-21 300 -179 494 -472 582 -78 23 -112 27 -250 30 -88 1 -185 -1 -215 -7z"/>
<path d="M900 1680 l0 -129 -62 29 c-75 36 -119 38 -178 8 -70 -35 -90 -85
-90 -219 0 -118 10 -161 48 -202 51 -54 129 -60 220 -17 l62 29 0 -24 c0 -24
3 -25 55 -25 l55 0 0 340 0 340 -55 0 -55 0 0 -130z m-55 -198 l50 -27 0 -90
0 -90 -50 -27 c-61 -33 -117 -36 -145 -8 -17 17 -20 33 -20 125 0 92 3 108 20
125 28 28 84 25 145 -8z"/>
<path d="M1890 1755 l0 -55 170 -2 171 -3 -171 -228 -170 -228 0 -54 0 -55
250 0 250 0 0 55 0 55 -170 0 c-93 0 -170 2 -170 5 0 3 74 104 165 225 l165
220 0 60 0 60 -245 0 -245 0 0 -55z"/>
<path d="M4350 1470 l0 -340 215 0 215 0 0 55 0 55 -155 0 -155 0 0 285 0 285
-60 0 -60 0 0 -340z"/>
<path d="M5910 1675 l0 -65 -35 0 c-35 0 -35 0 -35 -45 0 -45 0 -45 34 -45
l34 0 4 -144 c3 -128 5 -148 24 -173 33 -45 79 -65 155 -71 l69 -5 0 52 0 51
-54 0 c-79 0 -86 13 -86 167 l0 123 65 0 65 0 0 45 0 45 -65 0 -65 0 0 65 0
65 -55 0 -55 0 0 -65z"/>
<path d="M1240 1608 c-39 -11 -95 -50 -109 -76 -5 -10 -12 -34 -16 -55 l-7
-37 51 0 c49 0 53 2 63 30 18 54 97 76 157 45 32 -16 41 -33 41 -75 l0 -28
-102 -4 c-131 -4 -174 -24 -202 -90 -23 -55 -16 -104 20 -147 49 -58 126 -64
228 -18 l56 26 0 -25 c0 -23 3 -24 55 -24 l55 0 0 170 c0 181 -8 220 -52 268
-41 43 -157 63 -238 40z m180 -308 c0 -24 -8 -34 -46 -56 -89 -52 -164 -40
-164 26 0 46 31 60 127 60 l83 0 0 -30z"/>
<path d="M2630 1611 c-53 -16 -91 -43 -117 -82 -23 -36 -28 -54 -31 -133 -6
-143 19 -205 101 -248 32 -17 60 -22 112 -23 95 0 155 29 193 93 25 43 27 56
27 152 0 91 -3 110 -23 145 -48 84 -163 126 -262 96z m151 -120 c28 -28 29
-33 29 -118 0 -101 -11 -126 -67 -149 -47 -20 -97 -9 -128 28 -23 27 -25 38
-25 120 0 86 1 91 29 119 25 25 37 29 81 29 44 0 56 -4 81 -29z"/>
<path d="M3225 1607 c-16 -7 -45 -20 -62 -30 l-33 -18 0 26 c0 24 -3 25 -55
25 l-55 0 0 -240 0 -240 55 0 55 0 0 163 0 162 54 33 c62 37 98 40 126 12 18
-18 20 -33 20 -195 l0 -175 55 0 55 0 0 183 c0 159 -3 187 -20 225 -31 68
-119 99 -195 69z"/>
<path d="M3670 1608 c-39 -11 -95 -50 -109 -76 -5 -10 -12 -34 -16 -55 l-7
-37 51 0 c49 0 53 2 63 30 18 54 97 76 157 45 32 -16 41 -33 41 -75 l0 -28
-102 -4 c-131 -4 -174 -24 -202 -90 -23 -55 -16 -104 20 -147 49 -58 126 -64
228 -18 l56 26 0 -25 c0 -23 3 -24 55 -24 l55 0 0 170 c0 181 -8 220 -52 268
-41 43 -157 63 -238 40z m180 -308 c0 -24 -8 -34 -46 -56 -89 -52 -164 -40
-164 26 0 46 31 60 127 60 l83 0 0 -30z"/>
<path d="M4977 1608 c-52 -14 -112 -73 -126 -123 -14 -50 -14 -188 -1 -234 32
-113 190 -162 325 -102 47 21 85 69 85 109 0 20 -5 22 -48 22 -42 0 -50 -3
-60 -25 -13 -29 -48 -45 -98 -45 -52 0 -90 24 -104 65 -21 64 -18 65 155 65
l155 0 0 67 c0 89 -26 144 -86 179 -51 30 -137 39 -197 22z m160 -112 c13 -15
23 -40 23 -57 l0 -29 -111 0 -111 0 7 33 c4 17 20 45 37 61 28 25 36 28 81 23
39 -3 56 -11 74 -31z"/>
<path d="M5482 1606 c-53 -17 -80 -41 -98 -83 -19 -45 -17 -82 6 -120 26 -43
60 -59 164 -77 97 -17 116 -27 116 -62 0 -34 -36 -54 -98 -54 -43 0 -58 5 -77
25 -14 13 -25 29 -25 35 0 6 -23 10 -55 10 -62 0 -65 -4 -34 -66 30 -63 88
-89 194 -88 122 0 188 42 201 126 8 46 -17 103 -53 122 -16 8 -68 21 -116 30
-109 19 -127 28 -127 66 0 39 32 60 91 60 49 0 99 -28 99 -56 0 -10 14 -14 55
-14 55 0 55 0 49 28 -13 52 -35 82 -77 103 -53 28 -155 34 -215 15z"/>
<path d="M6357 1608 c-52 -14 -112 -73 -126 -123 -14 -50 -14 -188 -1 -234 32
-113 190 -162 325 -102 47 21 85 69 85 109 0 20 -5 22 -48 22 -42 0 -50 -3
-60 -25 -13 -29 -48 -45 -98 -45 -52 0 -90 24 -104 65 -21 64 -18 65 155 65
l155 0 0 67 c0 89 -26 144 -86 179 -51 30 -137 39 -197 22z m160 -112 c13 -15
23 -40 23 -57 l0 -29 -111 0 -111 0 7 33 c4 17 20 45 37 61 28 25 36 28 81 23
39 -3 56 -11 74 -31z"/>
<path d="M16041 1329 c-63 -12 -141 -60 -178 -108 -90 -116 -77 -302 25 -392
62 -55 115 -72 222 -73 121 -1 170 9 170 34 0 40 -10 50 -38 38 -49 -19 -172
-14 -222 8 -89 41 -136 126 -128 230 13 149 149 237 315 201 59 -13 62 -13 67
7 11 39 6 44 -44 55 -58 13 -126 13 -189 0z"/>
<path d="M17408 1273 c-14 -3 -18 -15 -18 -54 l0 -49 -40 0 c-38 0 -40 -2 -40
-30 0 -28 2 -30 40 -30 l40 0 0 -145 c0 -162 7 -185 62 -204 34 -12 88 -14
112 -5 9 4 16 18 16 34 0 27 -2 28 -34 23 -26 -4 -39 0 -55 16 -19 19 -21 32
-21 151 l0 130 60 0 60 0 0 30 0 30 -60 0 -60 0 0 55 c0 58 -6 63 -62 48z"/>
<path d="M16475 1165 c-22 -8 -57 -32 -77 -53 -93 -100 -70 -273 45 -334 35
-19 57 -23 132 -22 113 1 144 12 137 49 -4 22 -8 25 -26 20 -11 -4 -50 -9 -86
-12 -95 -6 -157 32 -176 110 l-6 27 161 0 161 0 0 44 c0 140 -125 220 -265
171z m129 -55 c27 -10 56 -56 56 -90 0 -19 -6 -20 -113 -20 -63 0 -116 3 -120
6 -11 11 15 64 45 89 32 27 85 33 132 15z"/>
<path d="M17007 1165 c-22 -7 -50 -23 -63 -36 l-24 -22 0 31 c0 31 -2 32 -41
32 -41 0 -41 0 -35 -31 3 -17 6 -110 6 -205 l0 -174 40 0 40 0 0 133 c0 85 5
141 13 156 34 66 127 86 175 37 26 -26 27 -29 30 -176 l3 -150 46 0 45 0 -3
153 c-5 178 -15 207 -89 245 -50 25 -88 27 -143 7z"/>
<path d="M17824 1166 c-17 -8 -40 -27 -52 -42 l-21 -29 -1 38 c0 36 -1 37 -37
37 l-38 0 3 -205 3 -205 39 0 38 0 4 134 c4 158 14 181 91 206 43 14 47 18 47
48 0 27 -4 32 -22 32 -13 -1 -37 -7 -54 -14z"/>
<path d="M18104 1171 c-94 -24 -156 -103 -157 -199 0 -78 17 -124 63 -166 82
-74 224 -76 307 -3 105 93 96 269 -18 339 -48 30 -139 44 -195 29z m134 -71
c87 -53 86 -217 -1 -270 -143 -87 -281 122 -164 249 42 45 111 54 165 21z"/>
<path d="M3863 771 c-67 -31 -96 -96 -74 -164 16 -46 44 -64 144 -88 113 -28
143 -64 92 -114 -46 -47 -165 -21 -165 36 0 16 -7 19 -40 19 -36 0 -40 -2 -40
-25 0 -94 128 -151 249 -110 81 27 116 93 91 170 -15 47 -43 64 -143 87 -113
26 -143 63 -92 113 44 45 141 27 152 -27 5 -27 9 -29 47 -26 39 3 41 4 38 33
-4 39 -31 76 -68 94 -47 24 -142 25 -191 2z"/>
<path d="M4245 765 c-36 -35 -33 -65 5 -65 20 0 30 5 30 15 0 19 38 20 59 1
35 -31 101 -20 119 19 19 42 15 55 -18 55 -20 0 -30 -5 -30 -15 0 -26 -25 -28
-66 -6 -50 27 -70 26 -99 -4z"/>
<path d="M5110 555 l0 -235 40 0 40 0 0 90 0 90 68 0 c80 0 127 20 159 69 28
41 30 98 6 148 -26 55 -75 73 -205 73 l-108 0 0 -235z m230 145 c12 -12 20
-33 20 -55 0 -56 -27 -75 -105 -75 l-65 0 0 75 0 75 65 0 c52 0 69 -4 85 -20z"/>
<path d="M6210 555 l0 -235 40 0 40 0 0 235 0 235 -40 0 -40 0 0 -235z"/>
<path d="M4271 648 c-35 -13 -65 -46 -76 -85 -6 -21 -3 -23 30 -23 28 0 37 5
44 24 11 26 30 36 71 36 31 0 70 -39 70 -71 0 -17 -8 -19 -65 -19 -74 0 -128
-18 -144 -48 -17 -33 -13 -87 9 -115 35 -44 84 -44 183 -2 12 5 17 3 17 -9 0
-12 10 -16 35 -16 l35 0 0 115 c0 127 -12 173 -53 200 -33 21 -114 28 -156 13z
m137 -213 c4 -27 -71 -68 -113 -63 -25 2 -31 8 -33 33 -5 41 20 57 88 53 46
-3 55 -6 58 -23z"/>
<path d="M4646 650 c-64 -20 -96 -76 -96 -167 0 -67 21 -117 63 -147 39 -29
135 -29 174 0 84 62 86 236 3 296 -30 21 -104 31 -144 18z m93 -65 c35 -18 41
-32 41 -104 0 -66 -17 -97 -59 -106 -33 -7 -85 15 -95 40 -11 29 -6 131 7 147
14 18 47 37 65 38 7 0 26 -7 41 -15z"/>
<path d="M5561 648 c-35 -13 -65 -46 -76 -85 -6 -21 -3 -23 30 -23 28 0 37 5
44 24 11 26 30 36 71 36 31 0 70 -39 70 -71 0 -17 -8 -19 -65 -19 -74 0 -128
-18 -144 -48 -17 -33 -13 -87 9 -115 35 -44 84 -44 183 -2 12 5 17 3 17 -9 0
-12 10 -16 35 -16 l35 0 0 115 c0 127 -12 173 -53 200 -33 21 -114 28 -156 13z
m137 -213 c4 -27 -71 -68 -113 -63 -25 2 -31 8 -33 33 -5 41 20 57 88 53 46
-3 55 -6 58 -23z"/>
<path d="M6456 650 c-64 -20 -96 -76 -96 -167 0 -67 21 -117 63 -147 39 -29
135 -29 174 0 84 62 86 236 3 296 -30 21 -104 31 -144 18z m93 -65 c35 -18 41
-32 41 -104 0 -66 -17 -97 -59 -106 -33 -7 -85 15 -95 40 -11 29 -6 131 7 147
14 18 47 37 65 38 7 0 26 -7 41 -15z"/>
<path d="M5852 516 c3 -126 5 -136 27 -160 34 -36 79 -42 135 -17 45 20 46 20
46 0 0 -15 7 -19 35 -19 l35 0 0 165 0 165 -35 0 -35 0 0 -113 0 -114 -32 -17
c-18 -10 -46 -16 -63 -14 l-30 3 -3 128 -3 127 -40 0 -41 0 4 -134z"/>
<path d="M17290 320 l0 -300 40 0 40 0 0 300 0 300 -40 0 -40 0 0 -300z"/>
<path d="M18284 591 c-112 -29 -166 -133 -114 -219 15 -24 41 -42 98 -68 132
-61 143 -67 158 -97 18 -33 11 -77 -14 -100 -10 -9 -38 -21 -63 -28 -38 -10
-56 -10 -105 3 -33 8 -66 18 -76 22 -12 6 -18 0 -23 -25 -9 -38 -1 -44 75 -60
114 -24 239 10 280 75 13 22 20 50 20 85 0 72 -44 120 -146 158 -97 36 -137
69 -137 111 0 80 107 112 224 67 12 -5 20 2 27 25 10 29 9 32 -16 41 -37 14
-150 20 -188 10z"/>
<path d="M15853 584 c-10 -4 -13 -71 -13 -285 l0 -279 40 0 40 0 0 109 0 108
81 6 c151 10 229 73 229 184 0 62 -28 108 -85 137 -33 17 -60 21 -160 23 -66
1 -126 0 -132 -3z m254 -80 c60 -45 51 -144 -16 -179 -38 -19 -111 -30 -145
-21 -26 6 -26 7 -26 117 l0 111 79 -3 c61 -3 86 -9 108 -25z"/>
<path d="M16377 426 c-58 -16 -67 -24 -57 -53 8 -20 10 -21 52 -6 89 31 178 0
178 -62 0 -20 -6 -23 -66 -28 -86 -8 -167 -45 -188 -86 -66 -126 78 -230 217
-157 43 23 45 24 50 5 4 -14 14 -19 41 -19 l36 0 0 128 c0 70 -5 147 -11 172
-23 102 -118 142 -252 106z m176 -251 c-2 -66 -42 -105 -106 -105 -48 0 -59 6
-76 37 -13 26 -6 67 16 84 20 17 102 39 138 36 29 -2 30 -3 28 -52z"/>
<path d="M17595 434 c-80 -20 -87 -25 -80 -53 9 -34 7 -33 48 -16 20 8 57 15
82 15 38 0 52 -5 76 -29 16 -16 29 -38 29 -49 0 -16 -10 -20 -62 -25 -94 -10
-138 -25 -175 -62 -28 -28 -33 -40 -33 -83 0 -60 24 -95 77 -113 52 -17 128
-5 169 26 l34 26 0 -25 c0 -23 4 -26 38 -26 l37 0 -3 158 c-4 175 -12 201 -70
235 -32 19 -128 31 -167 21z m155 -253 c0 -70 -29 -102 -97 -108 -42 -5 -54
-2 -72 16 -62 62 10 136 137 140 32 1 32 1 32 -48z"/>
<path d="M18762 431 c-53 -14 -110 -58 -134 -104 -27 -53 -30 -156 -5 -203 64
-122 249 -153 354 -61 108 95 94 278 -27 346 -42 24 -137 35 -188 22z m134
-70 c39 -23 66 -80 66 -136 0 -119 -110 -193 -203 -138 -77 46 -91 181 -26
252 42 44 111 54 163 22z"/>
<path d="M20137 426 c-58 -16 -61 -19 -53 -50 6 -25 7 -25 47 -11 92 33 169 9
184 -56 6 -26 6 -26 -66 -33 -123 -11 -196 -58 -205 -133 -13 -109 113 -168
232 -108 27 14 50 25 52 25 1 0 2 -9 2 -20 0 -16 7 -20 38 -20 l37 0 -5 157
c-6 176 -16 210 -72 239 -42 22 -132 27 -191 10z m183 -242 c0 -39 -5 -51 -34
-80 -28 -28 -41 -34 -77 -34 -52 0 -79 22 -79 65 0 55 61 91 158 94 32 1 32 0
32 -45z"/>
<path d="M16770 271 c0 -148 1 -160 23 -192 55 -83 185 -91 264 -17 l23 21 0
-31 c0 -30 2 -32 35 -32 l35 0 0 205 0 205 -40 0 -40 0 0 -132 c0 -148 -7
-170 -60 -206 -43 -29 -92 -24 -129 13 -25 25 -26 30 -29 175 l-3 150 -40 0
-39 0 0 -159z"/>
<path d="M19152 273 c3 -136 6 -163 23 -192 49 -83 190 -96 263 -23 l21 21 6
-30 c6 -25 11 -29 41 -29 l34 0 0 205 0 205 -45 0 -45 0 0 -146 0 -146 -28
-28 c-53 -53 -140 -48 -169 10 -8 17 -13 73 -13 168 l0 142 -46 0 -46 0 4
-157z"/>
<path d="M19640 400 l0 -30 120 0 c66 0 120 -4 120 -8 0 -5 -10 -17 -21 -28
-57 -51 -239 -274 -239 -293 0 -21 4 -21 185 -21 l185 0 0 30 0 30 -132 0
-132 0 40 43 c119 124 224 257 224 281 l0 26 -175 0 -175 0 0 -30z"/>
</g>
</svg>
